# xmcd CD database file
#
# Track frame offsets:
#	150
#	18080
#	39960
#	52730
#	62122
#	65580
#	89730
#	103475
#	117870
#	152555
#	162917
#
# Disc length: 2271 seconds
#
# Revision: 0
# Processed by: cddbd v1.4PL0 Copyright (c) Steve Scherf et al.
# Submitted via: CDex 1.50
#
DISCID=8a08dd0b
DTITLE=Ken Field - Subterranea
DYEAR=1996
DGENRE=Jazz
TTITLE0=A Space in a Place
TTITLE1=Om on the Range
TTITLE2=Takuskanskan
TTITLE3=Five Saxaphones in Search of Meaning
TTITLE4=Sanity
TTITLE5=Perpetual Motion
TTITLE6=Thoughts Unspoken
TTITLE7=Berrendo
TTITLE8=Sympathetic Magic
TTITLE9=The Missing Soul
TTITLE10=When I Fall In Love
EXTD=YEAR: 1996
EXTT0=
EXTT1=
EXTT2=
EXTT3=
EXTT4=
EXTT5=
EXTT6=
EXTT7=
EXTT8=
EXTT9=
EXTT10=
PLAYORDER=
